<?xml version="1.0" standalone="no"?>
<!DOCTYPE svg PUBLIC "-//W3C//DTD SVG 20010904//EN"
 "http://www.w3.org/TR/2001/REC-SVG-20010904/DTD/svg10.dtd">
<svg version="1.0" xmlns="http://www.w3.org/2000/svg"
 width="512.000000pt" height="512.000000pt" viewBox="0 0 512.000000 512.000000"
 preserveAspectRatio="xMidYMid meet">

<g transform="translate(0.000000,512.000000) scale(0.100000,-0.100000)"
fill="#000000" stroke="none">
<path d="M799 3906 c-56 -20 -96 -53 -126 -104 -24 -40 -28 -58 -28 -123 0
-67 4 -81 30 -125 19 -30 49 -60 79 -79 l49 -30 1757 0 1757 0 49 30 c30 19
60 49 79 79 27 44 30 58 30 126 0 68 -3 82 -30 126 -19 30 -49 60 -79 79 l-49
30 -1741 2 c-1406 2 -1748 0 -1777 -11z"/>
<path d="M799 2786 c-56 -20 -96 -53 -126 -104 -24 -40 -28 -58 -28 -123 0
-67 4 -81 30 -125 19 -30 49 -60 79 -79 l49 -30 1757 0 1757 0 49 30 c30 19
60 49 79 79 27 44 30 58 30 126 0 68 -3 82 -30 126 -19 30 -49 60 -79 79 l-49
30 -1741 2 c-1406 2 -1748 0 -1777 -11z"/>
<path d="M799 1666 c-56 -20 -96 -53 -126 -104 -24 -40 -28 -58 -28 -123 0
-67 4 -81 30 -125 19 -30 49 -60 79 -79 l49 -30 1757 0 1757 0 49 30 c30 19
60 49 79 79 27 44 30 58 30 126 0 68 -3 82 -30 126 -19 30 -49 60 -79 79 l-49
30 -1741 2 c-1406 2 -1748 0 -1777 -11z"/>
</g>
</svg>
